<!DOCTYPE svg PUBLIC "-//W3C//DTD SVG 1.1//EN" "http://www.w3.org/Graphics/SVG/1.1/DTD/svg11.dtd">
<!-- Uploaded to: SVG Repo, www.svgrepo.com, Transformed by: SVG Repo Mixer Tools -->
<svg fill="#303030" height="800px" width="800px" version="1.1" id="Layer_1" xmlns="http://www.w3.org/2000/svg" xmlns:xlink="http://www.w3.org/1999/xlink" viewBox="0 0 511.999 511.999" xml:space="preserve" stroke="#303030">
<g id="SVGRepo_bgCarrier" stroke-width="0"/>
<g id="SVGRepo_tracerCarrier" stroke-linecap="round" stroke-linejoin="round"/>
<g id="SVGRepo_iconCarrier"> <g> <g> <path d="M197.865,254.311c0.663,2.535,1.105,3.639,1.105,5.42v64.907c0,0.138,0,0.278,0,0.417v56.495 c0,53.994,43.855,98.346,97.848,98.346h117.011c53.994,0,98.17-44.351,98.17-98.346v-127.24H197.865z"/> </g> </g> <g> <g> <path d="M0,254.311v12.208c0,10.206,7.774,19.034,17.869,20.533l155.754,23.115v-50.436c0-1.782,0.293-2.886,0.957-5.42H0z"/> </g> </g> <g> <g> <path d="M293.242,159.962l-9.324-7.492c-3.595-2.89-5.622-7.191-5.558-11.803c0.062-4.612,2.204-8.857,5.877-11.648 c12.872-9.784,20.481-24.665,20.875-40.829c0.394-16.165-6.48-31.398-18.86-41.798c-8.04-6.752-20.031-5.709-26.784,2.329 s-5.709,20.03,2.329,26.784c4.769,4.005,5.371,9.085,5.306,11.758c-0.065,2.672-0.914,7.717-5.873,11.486 c-13.052,9.919-20.666,25.011-20.887,41.404c-0.222,16.393,6.98,31.684,19.759,41.954l9.324,7.492 c3.512,2.821,7.717,4.192,11.896,4.192c5.562,0,11.075-2.429,14.83-7.102C302.729,178.504,301.426,166.539,293.242,159.962z"/> </g> </g> <g> <g> <path d="M372.19,169.799l-10.936-8.788c-5.01-4.026-7.833-10.021-7.746-16.447c0.086-6.427,3.072-12.343,8.188-16.232 c14.298-10.866,22.75-27.396,23.187-45.349c0.437-17.953-7.197-34.876-20.948-46.426c-8.04-6.754-20.031-5.711-26.782,2.328 c-6.754,8.039-5.711,20.03,2.328,26.782c4.854,4.077,7.549,10.05,7.394,16.387c-0.156,6.337-3.139,12.171-8.184,16.006 c-14.497,11.017-22.954,27.779-23.2,45.987c-0.247,18.208,7.752,35.192,21.946,46.598l10.936,8.788 c3.512,2.822,7.717,4.192,11.896,4.192c5.562,0,11.075-2.43,14.83-7.102C381.676,188.34,380.373,176.375,372.19,169.799z"/> </g> </g> <g> <g> <path d="M448.161,159.962l-9.324-7.492c-3.595-2.89-5.622-7.191-5.558-11.803c0.062-4.612,2.204-8.857,5.877-11.648 c12.874-9.784,20.483-24.665,20.877-40.828c0.394-16.163-6.48-31.399-18.86-41.799c-8.04-6.752-20.03-5.709-26.784,2.329 c-6.752,8.039-5.709,20.03,2.329,26.784c4.769,4.006,5.371,9.087,5.306,11.758c-0.067,2.672-0.916,7.717-5.874,11.486 c-13.052,9.919-20.666,25.011-20.887,41.404c-0.222,16.393,6.98,31.684,19.759,41.954l9.324,7.492 c3.512,2.821,7.717,4.192,11.896,4.192c5.562,0,11.075-2.429,14.83-7.102C457.648,178.504,456.345,166.539,448.161,159.962z"/> </g> </g> </g>
</svg>